# xmcd CD database file
#
# Track frame offsets:
#	150
#	32591
#	43587
#	66208
#	71973
#	85091
#	105839
#	125711
#	129062
#	148852
#	167019
#	205724
#	218226
#	234118
#	249630
#	262966
#	271159
#	280955
#	306497
#
# Disc length: 4565 seconds
#
# Revision: 2
# Processed by: cddbd v1.5.2PL0 Copyright (c) Steve Scherf et al.
# Submitted via: CDex 1.51
#
DISCID=1211d313
DTITLE=Mozart - Grande Messe KV.427  (Jean-Pierre Lo Ré, Choeur and Orchestre Français d'Oratorio)
DYEAR=2009
DGENRE=Classique
TTITLE0=Grande Messe en Ut mineur KV.427 - I. Kyrie - Kyrie   {Église de la Trinité, 3 and 4 Dec. 2009}
TTITLE1=Grande Messe en Ut mineur KV.427 - II. Gloria - Gloria
TTITLE2=Grande Messe en Ut mineur KV.427 - II. Gloria - Laudamus te
TTITLE3=Grande Messe en Ut mineur KV.427 - II. Gloria - Gratias 
TTITLE4=Grande Messe en Ut mineur KV.427 - II. Gloria - Domine Deus 
TTITLE5=Grande Messe en Ut mineur KV.427 - II. Gloria - Qui tollis 
TTITLE6=Grande Messe en Ut mineur KV.427 - II. Gloria - Quoniam  
TTITLE7=Grande Messe en Ut mineur KV.427 - II. Gloria - Jesu Christe 
TTITLE8=Grande Messe en Ut mineur KV.427 - II. Gloria - Cum Sancto Spiritu 
TTITLE9=Grande Messe en Ut mineur KV.427 - III. Credo - Credo 
TTITLE10=Grande Messe en Ut mineur KV.427 - III. Credo - Et incarnatus es
TTITLE11=Grande Messe en Ut mineur KV.427 - III. Credo - Et resurrexit 
TTITLE12=Grande Messe en Ut mineur KV.427 - III. Credo - Et in Spiritum Sanctum
TTITLE13=Grande Messe en Ut mineur KV.427 - III. Credo - Credo in unam Sanctam
TTITLE14=Grande Messe en Ut mineur KV.427 - III. Credo - Et vitam venturi
TTITLE15=Grande Messe en Ut mineur KV.427 - IV. Sanctus - Sanctus 
TTITLE16=Grande Messe en Ut mineur KV.427 - IV. Sanctus - Hosanna
TTITLE17=Grande Messe en Ut mineur KV.427 - IV. Sanctus - Benedictus - Hosanna
TTITLE18=Grande Messe en Ut mineur KV.427 - V. Agnus Dei - Agnus Dei 
EXTD=YEAR: 2009
EXTT0=
EXTT1=
EXTT2=
EXTT3=
EXTT4=
EXTT5=
EXTT6=
EXTT7=
EXTT8=
EXTT9=
EXTT10=
EXTT11=
EXTT12=
EXTT13=
EXTT14=
EXTT15=
EXTT16=
EXTT17=
EXTT18=
PLAYORDER=
